<svg xmlns="http://www.w3.org/2000/svg" viewBox="0 0 64 64" fill="none">
  <defs>
    <radialGradient id="sc" cx="50%" cy="50%" r="50%">
      <stop offset="0%" stop-color="#94A3B8"/>
      <stop offset="100%" stop-color="#64748B"/>
    </radialGradient>
  </defs>
  <!-- Cloud -->
  <path d="M10 34 Q10 24 20 24 Q22 16 32 16 Q44 16 44 26 Q52 26 52 34 Z"
        fill="url(#sc)"/>
  <!-- Snowflakes -->
  <g fill="#BAE6FD" stroke="#7DD3FC" stroke-width="0.5">
    <!-- Snowflake 1 -->
    <line x1="22" y1="42" x2="22" y2="52" stroke="#7DD3FC" stroke-width="2"/>
    <line x1="17" y1="47" x2="27" y2="47" stroke="#7DD3FC" stroke-width="2"/>
    <line x1="18.5" y1="43.5" x2="25.5" y2="50.5" stroke="#7DD3FC" stroke-width="1.5"/>
    <line x1="25.5" y1="43.5" x2="18.5" y2="50.5" stroke="#7DD3FC" stroke-width="1.5"/>
    <!-- Snowflake 2 -->
    <line x1="32" y1="44" x2="32" y2="54" stroke="#7DD3FC" stroke-width="2"/>
    <line x1="27" y1="49" x2="37" y2="49" stroke="#7DD3FC" stroke-width="2"/>
    <line x1="28.5" y1="45.5" x2="35.5" y2="52.5" stroke="#7DD3FC" stroke-width="1.5"/>
    <line x1="35.5" y1="45.5" x2="28.5" y2="52.5" stroke="#7DD3FC" stroke-width="1.5"/>
    <!-- Snowflake 3 -->
    <line x1="42" y1="42" x2="42" y2="52" stroke="#7DD3FC" stroke-width="2"/>
    <line x1="37" y1="47" x2="47" y2="47" stroke="#7DD3FC" stroke-width="2"/>
    <line x1="38.5" y1="43.5" x2="45.5" y2="50.5" stroke="#7DD3FC" stroke-width="1.5"/>
    <line x1="45.5" y1="43.5" x2="38.5" y2="50.5" stroke="#7DD3FC" stroke-width="1.5"/>
  </g>
</svg>
